<svg width="209" height="28" viewBox="0 0 209 28" fill="none" xmlns="http://www.w3.org/2000/svg">
<g clip-path="url(#clip0_1_3)">
<path d="M0 24.1H11.7C17.2 24.1 20.4 21.8 20.4 17.3C20.4 14.5 18.7 12.8 16.3 12C18.3 11.1 19.7 9.4 19.7 6.7C19.7 3.2 17.5 0.8 12.2 0.8H0V24.1ZM13.1 7.9C13.1 9.5 12.1 10.3 9.9 10.3H6.4V5.5H9.9C12.1 5.5 13.1 6.3 13.1 7.9ZM13.8 16.9C13.8 18.6 12.8 19.3 10.5 19.3H6.4V14.4H10.6C12.8 14.4 13.8 15.2 13.8 16.9ZM38.2 24.1H44.9L36.8 0.7H28.4L20.3 24.1H26.8L28 20.3H37.1L38.2 24.1ZM32.5 5.9L35.4 15.4H29.5L32.5 5.9ZM55.1 24.5C61.4 24.5 65.4 21.5 65.4 16.8C65.4 13 62.9 11 58.9 10.2L53.8 9.2C51.8 8.8 51.2 8.2 51.2 7.1C51.2 6 52.4 5 54.5 5C56.9 5 58.6 6 58.7 8.1H65C65 2.5 60.3 0.3 54.5 0.3C48.9 0.3 44.8 3.1 44.8 7.6C44.8 11.4 47.3 13.4 51.3 14.2L56.4 15.2C58.4 15.6 59 16.2 59 17.3C59 18.8 57.6 19.6 55.3 19.6C52.7 19.6 50.8 18.3 50.7 15.8H44.4C44.6 21.3 48.1 24.5 55.1 24.5ZM67.3 24.1H73.7V0.7H67.3V24.1ZM82 12.4C82 8.5 84.1 5.6 87.6 5.6C90.5 5.6 92.3 7.3 92.7 9.3H99.4C98.8 3.2 93.6 0.2 87.7 0.2C80 0.2 75.4 5 75.4 12.3C75.4 19.6 79.9 24.4 87.7 24.4C93.7 24.4 98.9 21.5 99.5 15.3H92.8C92.4 17.4 90.7 19 87.7 19C84.1 19.2 82 16.3 82 12.4ZM113.7 0H108.5L98.5 27.7H103.7L113.7 0ZM137.8 12.4C137.8 5.8 134.2 0.7 125 0.7H115.2V24.1H125C134.2 24.1 137.8 19 137.8 12.4ZM131.2 12.4C131.2 17 128.6 18.7 125 18.7H121.7V6.1H125C128.6 6.1 131.2 7.8 131.2 12.4ZM139.5 24.1H158V18.8H145.8V14.8H156.5V9.7H145.8V6.1H157.7V0.7H139.5V24.1ZM180 8.9C180 3 176.2 0.8 170.4 0.8H160.3V24.2H166.7V17H170.5C176.2 17 180 14.8 180 8.9ZM173.4 8.9C173.4 11.2 172.3 12.1 169.7 12.1H166.6V5.6H169.7C172.3 5.6 173.4 6.6 173.4 8.9ZM181 6.2H188.4V24.1H194.8V6.2H202.2V0.7H181V6.2ZM203.5 23.7C200.9 23.7 198.7 21.6 198.7 18.9C198.7 16.3 200.8 14.1 203.5 14.1C206.2 14.1 208.3 16.2 208.3 18.9C208.3 21.5 206.1 23.7 203.5 23.7ZM203.5 14.9C201.3 14.9 199.5 16.7 199.5 18.9C199.5 21.1 201.3 22.9 203.5 22.9C205.7 22.9 207.5 21.1 207.5 18.9C207.5 16.7 205.7 14.9 203.5 14.9Z" fill="black"/>
<path d="M204 17.2H202.6V18.8H204C204.5 18.8 204.7 18.5 204.7 18C204.7 17.5 204.4 17.2 204 17.2ZM203.9 16.4C205.1 16.4 205.7 16.9 205.7 18C205.7 18.6 205.4 19.1 204.8 19.3L206 21.1H204.8L203.7 19.5H202.5V21.1H201.4V16.4H203.9Z" fill="black"/>
</g>
<defs>
<clipPath id="clip0_1_3">
<rect width="208.3" height="27.7" fill="white"/>
</clipPath>
</defs>
</svg>
