<svg width="91" height="28" viewBox="0 0 91 28" fill="none" xmlns="http://www.w3.org/2000/svg">
<g clip-path="url(#clip0_10_11)">
<path d="M80.145 11.71H86.609C86.264 9.618 85.1 8.573 83.464 8.573C81.827 8.573 80.546 9.736 80.145 11.709V11.71ZM83.755 21.645C79.445 21.645 75.727 18.336 75.727 13.391C75.727 8.573 79.1 5.027 83.582 5.027C88.182 5.027 90.918 8.918 90.918 13.164C90.918 13.627 90.864 14.445 90.8 14.791H80.146C80.727 16.881 82.527 17.873 84.627 17.873C86.782 17.873 88.7 17.173 90.391 16.127L90.445 16.182L89.455 20.2C88.118 20.955 86.082 21.645 83.755 21.645ZM67.281 8.464C65.417 8.464 64.317 10.091 64.317 11.891C64.317 13.636 65.427 15.264 67.281 15.264C69.145 15.264 70.253 13.636 70.253 11.891C70.245 10.081 69.144 8.464 67.281 8.464ZM66.753 28.036C64.19 28.036 61.981 27.227 60.181 25.827L61.463 22.4H61.517C63.144 23.736 64.717 24.436 66.699 24.436C68.909 24.436 70.309 23.273 70.309 21.709C70.309 20.082 69.026 18.919 66.753 18.919C64.772 18.919 63.435 19.445 62.217 20.019L62.163 19.964L63.153 16.946C61.29 15.846 60.19 13.927 60.19 11.655C60.19 8.109 63.044 5.027 67.408 5.027C68.981 5.027 69.853 5.318 70.963 5.318C72.826 5.318 74.517 4.736 76.026 4.1H76.081L75.035 7.99L72.417 7.755C73.873 8.973 74.4 10.373 74.4 12C74.4 13.745 73.354 15.718 71.2 16.818C73.41 17.864 74.69 19.545 74.69 21.873C74.673 25.482 71.589 28.036 66.753 28.036ZM53.253 13.046L50.4 6.018L47.545 13.046H53.255H53.253ZM54.883 17H45.919L44.119 21.418H39.465L48.709 0.0359993H52.2L61.455 21.418H56.682L54.883 17ZM29.855 9.1C27.355 9.1 25.718 10.782 25.718 13.345C25.718 15.727 27.346 17.591 29.909 17.591C31.827 17.591 33.809 16.136 33.809 13.345C33.819 10.845 32.009 9.1 29.855 9.1ZM33.818 19.382C32.364 20.891 30.736 21.645 28.873 21.645C24.509 21.645 21.191 18.045 21.191 13.391C21.191 8.455 24.627 5.027 28.991 5.027C30.909 5.027 32.427 5.782 33.709 6.945V0.0359993H38.136V21.418H33.818V19.382ZM13.791 13.045L10.936 6.018L8.091 13.046L13.791 13.045ZM15.427 17H6.464L4.664 21.418H0L9.255 0.0359993H12.745L22 21.418H17.227L15.427 17Z" fill="black"/>
</g>
<defs>
<clipPath id="clip0_10_11">
<rect width="91" height="28" fill="white"/>
</clipPath>
</defs>
</svg>
