<svg width="116" height="67" viewBox="0 0 116 67" fill="none" xmlns="http://www.w3.org/2000/svg">
<g clip-path="url(#clip0_11_13)">
<path d="M-0.0796509 36.2796V41.4354C39.8149 39.0629 10.1454 37.8305 -0.0796509 36.2796ZM-0.0796509 44.7984V49.8614L0.25381 49.9448C30.6471 47.1396 21.9231 46.1171 -0.0796509 44.7984Z" fill="black"/>
<path d="M-0.0796509 -0.0496235V16.5981C24.934 15.7523 25.0576 14.3344 12.0855 12.6156L14.4188 9.78256C30.4344 12.2404 29.4188 16.2659 17.9184 18.2819C21.772 19.6369 35.4312 22.1484 18.9181 27.114C21.6054 27.8441 36.7594 31.5953 17.9184 34.9463C20.9034 36.2944 36.7426 38.2278 18.5847 43.1122C23.2863 43.8843 35.3683 46.4601 19.4181 51.6112C25.4482 52.242 26.13 52.4513 27.7502 55.2776V66.1096H35.0826V-0.0496235H-0.0796509Z" fill="black"/>
<path d="M-0.0796509 28.4472V33.6135C7.42463 32.1374 41.6778 31.5384 -0.0796509 28.4472ZM-0.0796509 19.6426V25.1145C23.3704 23.853 31.2931 22.2192 -0.0796509 19.6426ZM43.695 17.5919H39.6941V16.8051H48.5481V17.5919H44.5481V28.2825H43.695V17.5919ZM50.7129 16.8051H51.5656V22.1178H58.9113V16.8051H59.764V28.2825H58.9113V22.9042H51.5656V28.2825H50.7129V16.8051ZM62.7478 16.8051H70.913V17.5919H63.6006V22.101H70.1753V22.8884H63.6006V27.4958H70.9952V28.2825H62.7475L62.7478 16.8051ZM40.2874 34.8797H44.0961L46.3637 42.4051L48.872 34.8433H51.9753L54.4827 42.4051L56.7502 34.8797H60.4853L56.1374 47.9794H52.9968L50.3952 40.4919L47.7756 47.9794H44.635L40.2874 34.8797ZM60.4856 41.2751V41.2258C60.4856 37.3169 63.2816 34.2241 67.2408 34.2241C71.8432 34.2241 73.9704 37.614 73.9704 41.5476C73.9704 41.8444 73.9704 42.1908 73.9461 42.5132H64.9894C65.3602 43.9725 66.4244 44.7147 67.8834 44.7147C69.0225 44.7147 69.8883 44.2943 70.8532 43.354L73.4504 45.5068C72.1643 47.139 70.309 48.2279 67.6615 48.2279C63.4558 48.2276 60.4856 45.4075 60.4856 41.2751ZM69.5905 40.1126C69.4176 38.6274 68.5276 37.687 67.2408 37.687C66.0027 37.687 65.1626 38.6274 64.9148 40.1126H69.5905ZM76.5271 34.8797H83.1979C84.8333 34.8797 85.9851 35.2883 86.7472 36.0321C87.2671 36.5703 87.5832 37.2581 87.5832 38.1501V38.1871C87.5832 39.6922 86.7282 40.5842 85.5761 41.0861C87.1562 41.6061 88.1597 42.498 88.1597 44.2636V44.3C88.1597 46.5305 86.3385 47.8868 83.2352 47.8868H76.5268L76.5271 34.8797ZM84.034 38.8935C84.034 38.1687 83.4587 37.7787 82.3995 37.7787H80.0391V40.0639H82.3066C83.4031 40.0639 84.034 39.6922 84.034 38.9305V38.8935ZM82.7892 42.5907H80.0394V44.9878H82.8265C83.941 44.9878 84.5552 44.5604 84.5552 43.7987V43.7617C84.5552 43.0556 83.9963 42.5907 82.7892 42.5907ZM90.9386 34.8797H97.6094C99.2448 34.8797 100.397 35.2883 101.159 36.0321C101.679 36.5703 101.995 37.2581 101.995 38.1501V38.1871C101.995 39.6922 101.14 40.5842 99.9876 41.0861C101.568 41.6061 102.57 42.498 102.57 44.2636V44.3C102.57 46.5305 100.75 47.8868 97.6467 47.8868H90.9383L90.9386 34.8797ZM98.4454 38.8935C98.4454 38.1687 97.8702 37.7787 96.811 37.7787H94.4506V40.0639H96.7181C97.8133 40.0639 98.4454 39.6922 98.4454 38.9305V38.8935ZM97.2004 42.5907H94.4506V44.9878H97.2377C98.3522 44.9878 98.966 44.5604 98.966 43.7987V43.7617C98.966 43.0556 98.4091 42.5907 97.2004 42.5907ZM107.531 43.0186L102.57 34.8797H106.677L109.353 39.6176L112.047 34.8797H116.08L111.136 42.963V47.8868H107.532L107.531 43.0186ZM46.1727 53.4453H46.9926L52.3375 65.0049H51.4035L49.9442 61.791H43.1719L41.7126 65.0049H40.8276L46.1727 53.4453ZM49.5835 61.0201L46.5669 54.38L43.5329 61.0201H49.5835ZM52.2711 53.5275H53.2222L56.8293 63.7425L60.191 53.494H60.8463L64.2084 63.7425L67.8154 53.5275H68.7005L64.5361 65.0871H63.8474L60.4856 55.1177L57.1242 65.0871H56.4354L52.2711 53.5275ZM74.2577 53.4539H75.0776L80.4225 65.0128H79.4884L78.0291 61.7996H71.2569L69.7975 65.0128H68.9125L74.2577 53.4539ZM77.6685 61.0286L74.6518 54.3885L71.6178 61.0286H77.6685ZM82.3954 53.5275H87.2162C88.6265 53.5275 89.7581 53.97 90.4468 54.6584C90.9879 55.1999 91.3157 55.9702 91.3157 56.7901V56.8229C91.3157 58.7409 89.8893 59.8405 87.9539 60.1022L91.7415 65.0052H90.6589L87.0029 60.2505H83.2482V65.0052H82.3954V53.5275ZM87.1176 59.4792C89.0359 59.4792 90.462 58.5117 90.462 56.8561V56.8229C90.462 55.2821 89.2495 54.3139 87.1666 54.3139H83.2479V59.4792H87.1176ZM93.8519 53.5275H97.6726C101.28 53.5275 103.772 56.003 103.772 59.2337V59.2659C103.772 62.4965 101.28 65.0052 97.6726 65.0052H93.8519V53.5275ZM94.7047 54.3139V64.2179H97.6726C100.87 64.2179 102.886 62.0369 102.886 59.2991V59.2659C102.886 56.5448 100.87 54.3142 97.6726 54.3142H94.7047V54.3139ZM105.345 63.3325L105.903 62.6931C107.166 63.8575 108.33 64.398 110.019 64.398C111.739 64.398 112.92 63.4308 112.92 62.1194V62.0862C112.92 60.8731 112.282 60.1683 109.675 59.6433C106.921 59.0857 105.804 58.1511 105.804 56.4127V56.3798C105.804 54.6746 107.363 53.3635 109.494 53.3635C111.167 53.3635 112.265 53.8221 113.428 54.7567L112.888 55.429C111.806 54.4944 110.723 54.1331 109.461 54.1331C107.773 54.1331 106.658 55.101 106.658 56.2976V56.3308C106.658 57.5439 107.282 58.2816 110.002 58.8392C112.657 59.38 113.774 60.3314 113.774 62.0037V62.0366C113.774 63.8891 112.184 65.1683 109.97 65.1683C108.133 65.1686 106.722 64.5624 105.345 63.3325Z" fill="black"/>
</g>
<defs>
<clipPath id="clip0_11_13">
<rect width="116" height="66.0599" fill="white"/>
</clipPath>
</defs>
</svg>
