<svg width="115" height="33" viewBox="0 0 115 33" fill="none" xmlns="http://www.w3.org/2000/svg">
<g clip-path="url(#clip0_11_17)">
<path d="M53.704 29.992L49.564 29.971L49.59 29.708C49.615 29.459 49.643 29.439 50.085 29.351C50.698 29.23 51.097 28.921 51.292 28.416C51.436 28.042 51.445 27.606 51.445 20.624C51.445 13.402 51.441 13.222 51.28 12.956C51.103 12.664 50.565 12.356 50.23 12.356C49.972 12.356 49.824 12.213 49.824 11.963C49.824 11.736 50.006 11.652 50.86 11.483C51.182 11.418 52.36 11.175 53.48 10.941C54.6 10.707 55.638 10.495 55.786 10.469L56.056 10.423V11.348C56.056 11.902 56.09 12.273 56.139 12.273C56.184 12.273 56.471 12.009 56.777 11.688C58.011 10.392 59.545 10.096 61.126 10.85C61.744 11.144 62.832 12.229 63.262 12.979C65.056 16.107 64.869 20.593 62.832 23.303C61.809 24.663 60.445 25.371 58.978 25.3C57.941 25.251 57.415 25.024 56.685 24.309C56.365 23.996 56.089 23.74 56.072 23.74C56.055 23.74 56.055 24.759 56.072 26.005C56.101 28.174 56.11 28.284 56.292 28.629C56.502 29.027 56.967 29.293 57.586 29.369C57.773 29.392 57.969 29.464 58.021 29.529C58.131 29.666 58.08 29.949 57.939 29.987C57.886 30.002 55.98 30.004 53.704 29.992ZM58.799 23.5C59.569 22.948 59.813 21.693 59.814 18.256C59.815 15.426 59.646 14.136 59.161 13.291C58.912 12.857 58.554 12.659 58.009 12.653C57.22 12.644 56.691 13.086 56.289 14.089C56.106 14.547 56.101 14.643 56.074 18.232C56.042 22.378 56.011 22.148 56.702 22.916C57.4 23.693 58.213 23.919 58.799 23.5ZM90.169 29.92C88.534 29.751 87.202 29.433 86.384 29.018C85.942 28.793 85.424 28.343 85.212 28.001C85.059 27.753 85.022 27.574 85.023 27.107C85.027 26.192 85.303 25.824 86.394 25.274C87.034 24.952 87.149 24.828 86.929 24.701C86.324 24.35 85.795 23.655 85.642 23.01C85.447 22.186 85.763 21.158 86.354 20.694C86.717 20.409 87.406 20.084 87.647 20.084C87.871 20.084 87.951 19.826 87.761 19.715C87.678 19.666 87.381 19.448 87.102 19.23C85.177 17.722 84.645 15.674 85.629 13.56C86.249 12.228 87.831 11.007 89.503 10.568C90.78 10.233 92.508 10.274 93.658 10.666C94.311 10.888 94.372 10.893 96.899 10.938L99.475 10.984V12.314L98.039 12.356L96.602 12.397L97.077 13.145C97.832 14.335 98.041 14.858 98.087 15.669C98.164 17.04 97.775 18.019 96.741 19.053C96.191 19.603 95.924 19.797 95.279 20.113C93.761 20.858 93.001 20.948 89.495 20.793C87.903 20.723 87.717 20.761 87.717 21.157C87.717 21.626 87.64 21.617 92.113 21.667C96.125 21.713 96.25 21.72 96.816 21.906C97.712 22.2 98.278 22.521 98.699 22.971C99.223 23.531 99.342 23.793 99.449 24.622C99.788 27.247 97.899 29.177 94.409 29.773C93.686 29.897 90.879 29.994 90.169 29.92ZM94.641 28.612C95.524 28.345 95.937 28.142 96.279 27.809C96.894 27.207 96.939 26.259 96.37 25.839C95.698 25.342 94.626 25.212 91.51 25.251L89.088 25.281L88.663 25.503C87.29 26.223 87.427 27.597 88.943 28.32C89.875 28.765 90.696 28.893 92.412 28.861C93.746 28.837 93.987 28.81 94.641 28.612ZM92.53 19.69C93.414 19.254 93.79 18.013 93.792 15.514C93.794 13.217 93.382 12.05 92.412 11.6C91.332 11.1 90.363 11.8 89.921 13.4C89.735 14.07 89.656 16.35 89.788 17.248C89.987 18.608 90.38 19.364 91.071 19.713C91.552 19.957 92.001 19.95 92.53 19.69ZM5.907 25.316C4.348 25.161 3.055 24.557 1.947 23.466C0.816 22.354 0.216 21.014 0.0400004 19.203C-0.421 14.483 3.098 10.361 7.587 10.361C9.314 10.361 10.881 10.981 12.002 12.105C12.897 13.002 13.246 14.035 13.018 15.103C12.879 15.75 12.585 16.129 11.99 16.426C11.296 16.773 10.733 16.771 10.032 16.421C9.162 15.986 8.838 15.341 8.642 13.659C8.446 11.955 8.226 11.649 7.202 11.649C6.754 11.649 6.583 11.691 6.266 11.877C5.501 12.327 4.929 13.235 4.61 14.505C4.458 15.109 4.44 15.373 4.473 16.5C4.513 17.869 4.642 18.545 5.063 19.587C5.756 21.303 7.065 22.54 8.501 22.835C8.953 22.928 9.097 22.923 9.623 22.797C10.318 22.63 11.09 22.23 11.742 21.699C11.991 21.496 12.243 21.33 12.302 21.33C12.442 21.33 12.678 21.692 12.678 21.905C12.678 22.233 11.418 23.576 10.544 24.177C9.184 25.114 7.655 25.489 5.907 25.316ZM23.335 25.314C22.381 25.182 21.418 24.439 21.105 23.592C20.871 22.957 20.855 22.952 20.378 23.356C19.799 23.846 18.625 24.606 18.074 24.849C16.605 25.495 15.352 25.435 14.232 24.665C12.935 23.773 12.635 21.687 13.562 20.013C13.918 19.371 14.865 18.397 15.696 17.818C16.928 16.96 19.365 15.744 20.588 15.378C21.185 15.198 21.192 15.18 21.138 13.85C21.086 12.613 20.912 12.196 20.289 11.816C19.902 11.58 19.831 11.566 19.001 11.566C18.189 11.566 18.09 11.584 17.692 11.804C17.195 12.08 16.856 12.599 16.944 12.95C16.974 13.065 17.184 13.412 17.412 13.721C17.64 14.031 17.852 14.413 17.881 14.571C18.11 15.789 16.901 16.839 15.381 16.741C14.013 16.654 13.341 15.734 13.511 14.183C13.688 12.567 15.187 11.273 17.667 10.595C18.302 10.422 18.543 10.403 20.117 10.407C21.658 10.41 21.939 10.432 22.527 10.596C24.167 11.052 25.095 11.795 25.502 12.976C25.556 13.133 25.607 15.011 25.637 17.923C25.682 22.4 25.692 22.633 25.85 22.951C26 23.25 26.051 23.286 26.364 23.308C26.669 23.331 26.734 23.303 26.899 23.08C27.114 22.79 27.301 22.759 27.502 22.98C27.687 23.185 27.597 23.405 27.097 23.968C26.155 25.031 24.798 25.516 23.335 25.314ZM19.84 22.622C20.1 22.494 20.445 22.279 20.609 22.145L20.906 21.9V19.039C20.906 17.465 20.886 16.179 20.862 16.179C20.567 16.179 19.439 16.914 18.841 17.496C17.667 18.639 17.078 20.41 17.447 21.681C17.783 22.835 18.687 23.191 19.84 22.622ZM74.754 25.325C74.1519 25.248 73.589 24.9848 73.144 24.572C72.769 24.226 72.344 23.511 72.344 23.225C72.344 22.968 72.134 23.056 71.355 23.642C70.54 24.254 69.417 24.876 68.687 25.12C68.377 25.224 67.99 25.272 67.483 25.271C66.821 25.27 66.672 25.241 66.195 25.014C65.468 24.67 65.034 24.273 64.697 23.642C64.449 23.18 64.411 23.026 64.381 22.36C64.315 20.882 64.674 20.01 65.814 18.876C66.229 18.463 66.849 17.942 67.192 17.718C68.249 17.026 69.978 16.132 71.125 15.684C71.727 15.449 72.275 15.225 72.344 15.188C72.444 15.132 72.468 14.921 72.464 14.082C72.458 12.84 72.331 12.417 71.835 11.992C71.399 11.619 70.921 11.494 70.106 11.542C69.324 11.587 68.747 11.842 68.459 12.269C68.159 12.713 68.21 13.013 68.695 13.653C69.179 14.293 69.269 14.491 69.269 14.911C69.269 15.901 68.172 16.762 66.919 16.758C65.966 16.755 65.133 16.18 64.896 15.364C64.276 13.23 66.242 11.166 69.536 10.492C70.396 10.316 72.423 10.317 73.353 10.492C75.186 10.84 76.411 11.688 76.803 12.879C76.928 13.259 76.951 13.882 76.992 18.006C77.035 22.316 77.052 22.724 77.188 22.975C77.343 23.258 77.686 23.452 77.856 23.352C77.909 23.32 78.106 23.171 78.293 23.02L78.633 22.745L78.823 22.947C79.051 23.19 79.037 23.235 78.548 23.835C77.613 24.983 76.227 25.527 74.754 25.325ZM71.281 22.583C71.569 22.433 71.906 22.215 72.032 22.096L72.261 21.881V16.167L72.074 16.223C71.491 16.396 70.302 17.278 69.81 17.9C68.86 19.102 68.474 20.582 68.814 21.727C69.156 22.877 70.091 23.201 71.281 22.583ZM30.088 25.154L26.681 25.111L26.655 24.841C26.635 24.623 26.66 24.571 26.785 24.571C27.058 24.571 27.683 24.11 27.831 23.799C27.908 23.636 28.008 23.309 28.054 23.07C28.171 22.451 28.162 12.994 28.044 12.567C27.924 12.137 27.501 11.72 27.11 11.647C26.773 11.583 26.6 11.365 26.682 11.106C26.732 10.948 26.827 10.943 29.768 10.943H32.8L32.787 11.919C32.78 12.456 32.777 12.967 32.781 13.053C32.786 13.168 32.962 13.032 33.432 12.55C34.192 11.771 34.906 11.266 35.678 10.965C36.161 10.776 36.361 10.746 37.151 10.746C37.882 10.746 38.151 10.78 38.498 10.918C39.481 11.31 40.24 12.148 40.606 13.248C40.701 13.534 40.808 13.768 40.844 13.768C40.879 13.768 41.119 13.494 41.376 13.158C42.626 11.525 43.881 10.777 45.366 10.777C46.931 10.777 48.152 11.517 48.882 12.907C49.402 13.897 49.487 14.81 49.489 19.387C49.49 21.44 49.527 23.161 49.575 23.417C49.683 23.995 49.87 24.238 50.328 24.399C50.532 24.471 50.745 24.559 50.801 24.597C50.936 24.685 50.934 25.152 50.8 25.157C50.703 25.16 43.784 25.158 43.659 25.154C43.628 25.154 43.579 25.079 43.551 24.99C43.479 24.764 43.645 24.488 43.851 24.488C44.178 24.488 44.558 24.238 44.708 23.924C44.933 23.454 45.018 21.479 44.983 17.508C44.961 15.083 44.922 13.968 44.85 13.75C44.703 13.303 44.375 12.955 43.997 12.841C43.195 12.601 42.185 13.311 41.431 14.643L41.056 15.303L41.031 18.5C41.005 21.813 41.086 23.481 41.293 23.881C41.456 24.196 41.662 24.365 42.029 24.483C42.199 24.537 42.358 24.648 42.384 24.731C42.434 24.887 42.364 25.151 42.274 25.155L38.771 25.162L35.323 25.167L35.297 24.873C35.273 24.595 35.294 24.568 35.671 24.388C35.991 24.235 36.111 24.114 36.278 23.782L36.486 23.366V18.588C36.486 13.852 36.484 13.806 36.305 13.418C35.796 12.316 34.533 12.524 33.434 13.891C32.642 14.875 32.691 14.507 32.72 19.311C32.746 23.337 32.754 23.548 32.913 23.865C33.04 24.119 33.183 24.246 33.518 24.405C34.016 24.64 34.172 24.93 33.907 25.125C33.8252 25.1855 33.7257 25.2174 33.624 25.216C33.553 25.206 31.962 25.178 30.088 25.154ZM78.148 24.993C78.037 24.703 78.097 24.616 78.59 24.351C78.911 24.178 79.088 24.012 79.24 23.74L79.449 23.366L79.474 18.339C79.488 15.574 79.476 13.151 79.448 12.955C79.358 12.341 78.856 11.925 77.983 11.739C77.823 11.705 77.756 11.631 77.732 11.463C77.652 10.906 77.426 10.943 80.909 10.943H84.061V16.88C84.061 20.924 84.091 22.955 84.153 23.249C84.277 23.826 84.63 24.204 85.224 24.397C85.638 24.532 85.684 24.57 85.707 24.808C85.725 24.984 85.692 25.087 85.607 25.119C85.537 25.146 83.848 25.174 81.852 25.181L78.224 25.194L78.148 24.993ZM100.011 25.115C99.792 24.896 100.007 24.49 100.406 24.369C100.7 24.279 100.923 23.819 101.017 23.106C101.071 22.696 101.094 20.652 101.079 17.632C101.055 12.928 101.05 12.805 100.88 12.482C100.76 12.252 100.562 12.065 100.236 11.875C99.79 11.615 99.766 11.584 99.766 11.271V10.941L105.708 10.984V11.933C105.708 12.536 105.74 12.892 105.797 12.911C105.846 12.928 106.081 12.719 106.318 12.446C106.879 11.801 107.938 11.007 108.548 10.775C108.863 10.655 109.292 10.577 109.779 10.551C111.781 10.443 113.108 11.329 113.782 13.222C114.143 14.237 114.162 14.489 114.215 19.003C114.266 23.303 114.269 23.371 114.451 23.711C114.645 24.073 114.999 24.405 115.192 24.405C115.271 24.405 115.306 24.518 115.306 24.779V25.153L112.065 25.168C110.922 25.1716 109.78 25.1783 108.637 25.188C108.476 25.193 108.446 25.146 108.425 24.85C108.401 24.521 108.416 24.496 108.753 24.31C108.947 24.202 109.183 23.983 109.277 23.823C109.443 23.539 109.447 23.423 109.447 18.588C109.447 13.808 109.442 13.633 109.281 13.317C109.189 13.137 109.016 12.917 108.895 12.829C108.621 12.629 107.965 12.609 107.619 12.789C107.19 13.015 106.582 13.606 106.157 14.21L105.749 14.791V18.918C105.749 22.315 105.771 23.118 105.872 23.458C106.001 23.893 106.289 24.224 106.705 24.416C106.895 24.504 106.96 24.594 106.98 24.801C106.997 24.973 106.965 25.087 106.892 25.115C106.678 25.197 100.093 25.197 100.011 25.115ZM81.086 10.458C80.492 10.246 80.079 9.898 79.784 9.358C79.577 8.978 79.538 8.815 79.54 8.325C79.542 7.401 79.948 6.682 80.725 6.225C81.059 6.029 81.2 5.999 81.775 6C82.564 6.002 82.929 6.16 83.45 6.725C84.282 7.628 84.251 9.088 83.382 9.921C82.773 10.505 81.834 10.724 81.086 10.458ZM107.333 4.41H108.104V7.757C108.104 8.114 108.02 8.429 107.853 8.705C107.682 8.98141 107.437 9.205 107.147 9.351C106.815 9.51326 106.449 9.5935 106.08 9.585C105.674 9.585 105.32 9.507 105.016 9.351C104.726 9.205 104.481 8.98141 104.31 8.705C104.14 8.41855 104.053 8.09021 104.059 7.757V4.41H104.827V7.696C104.827 7.926 104.878 8.131 104.979 8.31C105.082 8.49 105.227 8.63 105.414 8.733C105.601 8.834 105.823 8.885 106.08 8.885C106.339 8.885 106.562 8.834 106.749 8.733C106.938 8.63 107.082 8.489 107.181 8.31C107.283 8.131 107.333 7.927 107.333 7.696V4.41ZM111.997 5.746C111.988 5.63603 111.953 5.52967 111.896 5.43505C111.839 5.34043 111.762 5.26003 111.669 5.2C111.477 5.069 111.235 5.003 110.943 5.003C110.734 5.003 110.554 5.036 110.401 5.103C110.261 5.15846 110.138 5.2511 110.046 5.371C109.963 5.48219 109.919 5.61744 109.921 5.756C109.918 5.8667 109.948 5.97581 110.006 6.07C110.065 6.15841 110.142 6.23337 110.232 6.29C110.327 6.349 110.428 6.398 110.535 6.437C110.643 6.476 110.747 6.507 110.846 6.532L111.343 6.662C111.506 6.701 111.672 6.755 111.843 6.822C112.014 6.891 112.172 6.98 112.318 7.092C112.475 7.2068 112.601 7.35802 112.686 7.53259C112.771 7.70716 112.813 7.89984 112.807 8.094C112.807 8.381 112.733 8.637 112.584 8.861C112.436 9.085 112.222 9.261 111.94 9.391C111.66 9.52 111.321 9.585 110.923 9.585C110.542 9.585 110.212 9.524 109.934 9.403C109.672 9.29535 109.446 9.11703 109.28 8.888C109.119 8.65315 109.029 8.3774 109.019 8.093H109.79C109.799 8.26161 109.861 8.42294 109.969 8.553C110.079 8.67609 110.218 8.76904 110.374 8.823C110.54 8.882 110.721 8.911 110.918 8.911C111.135 8.911 111.328 8.877 111.497 8.809C111.654 8.74949 111.793 8.65026 111.9 8.521C111.998 8.39735 112.05 8.24363 112.047 8.086C112.052 7.95079 112.006 7.81858 111.918 7.716C111.822 7.61138 111.704 7.52941 111.572 7.476C111.413 7.4081 111.249 7.3526 111.082 7.31L110.481 7.146C110.073 7.035 109.75 6.872 109.511 6.656C109.274 6.441 109.156 6.156 109.156 5.801C109.156 5.508 109.235 5.251 109.394 5.033C109.554 4.814 109.769 4.644 110.041 4.523C110.331 4.39667 110.644 4.33392 110.96 4.339C111.305 4.339 111.609 4.4 111.873 4.521C112.138 4.641 112.347 4.808 112.499 5.021C112.652 5.231 112.731 5.473 112.738 5.746H111.997Z" fill="black"/>
</g>
<defs>
<clipPath id="clip0_11_17">
<rect width="115" height="33" fill="white"/>
</clipPath>
</defs>
</svg>
